<?xml version="1.0" standalone="no"?>
<!DOCTYPE svg PUBLIC "-//W3C//DTD SVG 20010904//EN"
 "http://www.w3.org/TR/2001/REC-SVG-20010904/DTD/svg10.dtd">
<svg version="1.0" xmlns="http://www.w3.org/2000/svg"
 width="660.000000pt" height="149.000000pt" viewBox="0 0 660.000000 149.000000"
 preserveAspectRatio="xMidYMid meet">
<metadata>
Created by potrace 1.15, written by Peter Selinger 2001-2017
</metadata>
<g transform="translate(0.000000,149.000000) scale(0.100000,-0.100000)"
fill="#000000" stroke="none">
<path d="M540 1344 c-96 -20 -238 -94 -312 -162 -63 -58 -142 -168 -132 -183
3 -5 1 -9 -5 -9 -6 0 -20 -32 -32 -70 -18 -59 -20 -89 -17 -183 5 -134 26
-200 94 -300 67 -98 217 -217 278 -221 13 0 22 -4 20 -7 -2 -3 29 -16 69 -29
66 -21 95 -24 338 -28 l266 -4 6 24 c3 12 9 49 12 81 7 55 7 57 -16 57 -30 0
-104 33 -145 65 -17 13 -35 21 -39 17 -5 -4 -5 -2 -2 4 4 6 -5 22 -20 35 -23
22 -67 84 -72 101 -1 4 -9 24 -17 44 -95 227 45 480 316 571 53 17 160 18
2736 21 l2682 2 5 30 c4 16 9 59 13 95 l7 65 -2984 -1 c-2510 0 -2994 -3
-3049 -15z"/>
<path d="M1596 1018 c-4 -12 -49 -327 -60 -418 -8 -69 -57 -406 -61 -428 l-5
-22 238 0 c180 0 252 4 296 15 86 23 181 95 158 120 -4 5 -2 5 5 2 19 -11 48
80 47 149 -1 70 -28 124 -76 154 -28 17 -29 18 -10 24 37 12 90 83 107 141 32
110 0 198 -90 244 -48 26 -54 26 -297 29 -198 3 -249 1 -252 -10z m395 -198
c25 -14 25 -70 0 -101 -17 -22 -29 -24 -116 -28 l-97 -3 6 43 c17 109 7 99
102 99 47 0 94 -5 105 -10z m-58 -321 c46 -12 61 -43 46 -89 -17 -46 -54 -60
-160 -60 -89 0 -91 0 -86 23 3 12 9 48 12 80 l7 57 72 0 c39 0 88 -5 109 -11z"/>
<path d="M2446 998 c-29 -168 -77 -552 -72 -590 13 -119 65 -197 158 -239 78
-34 241 -39 335 -11 114 35 190 97 241 197 31 63 40 103 77 375 19 140 37 265
40 278 5 22 5 22 -115 22 -116 0 -120 -1 -125 -22 -2 -13 -20 -135 -40 -273
-40 -283 -53 -324 -121 -362 -70 -41 -158 -23 -189 37 -22 43 -19 100 20 370
19 134 35 244 35 246 0 2 -53 4 -119 4 l-119 0 -6 -32z"/>
<path d="M2747 898 c-24 -185 -29 -168 53 -168 l69 0 6 33 c11 64 35 237 35
252 0 12 -15 15 -73 15 l-73 0 -17 -132z"/>
<path d="M3366 768 c-20 -145 -39 -276 -41 -293 -2 -16 -13 -92 -24 -168 -12
-76 -21 -142 -21 -148 0 -5 51 -9 119 -9 l119 0 6 27 c3 16 12 80 21 143 9 63
18 127 21 143 l6 27 144 0 c79 0 144 -4 144 -8 0 -4 -9 -70 -20 -147 -29 -207
-41 -185 98 -185 l119 0 57 413 c32 226 60 424 63 440 l6 27 -121 0 -120 0 -6
-27 c-3 -16 -12 -80 -21 -143 -8 -63 -18 -125 -20 -137 -5 -23 -8 -23 -150
-23 -109 0 -145 3 -145 13 0 6 9 71 20 142 29 195 41 175 -98 175 l-119 0 -37
-262z"/>
<path d="M4296 607 c-33 -232 -61 -430 -64 -440 -4 -16 13 -17 299 -15 l304 3
11 85 c7 47 13 93 13 103 1 16 -14 17 -179 17 l-180 0 5 22 c2 13 23 154 45
313 22 160 43 300 45 313 5 22 5 22 -117 22 l-123 0 -59 -423z"/>
<path d="M5046 998 c-9 -54 -116 -819 -116 -834 0 -12 54 -14 318 -14 l319 0
11 82 c7 46 12 93 12 106 l0 22 -198 0 -198 0 9 70 10 70 183 0 182 0 6 28 c3
15 8 47 11 72 3 25 8 57 11 73 l6 27 -187 0 -187 0 6 28 c3 15 8 44 12 64 l6
38 201 2 202 3 11 85 c7 47 13 91 13 98 1 9 -69 12 -318 12 l-319 0 -6 -32z"/>
<path d="M5860 994 c0 -25 3 -33 13 -28 7 4 9 3 4 -2 -5 -5 -12 -9 -15 -9 -4
0 -32 -180 -64 -400 -31 -220 -57 -401 -58 -402 0 -2 54 -3 120 -3 l119 0 6
33 c4 27 35 246 35 253 0 1 15 4 34 6 l34 4 73 -148 73 -148 133 0 c73 0 133
3 133 6 0 19 -54 102 -63 97 -6 -3 -7 -1 -3 5 4 6 -16 56 -43 110 l-49 99 33
12 c47 17 116 86 144 146 17 36 26 74 29 133 6 104 -12 157 -71 207 -67 58
-109 65 -379 65 l-238 0 0 -36z m426 -187 c28 -24 28 -23 21 -119 -1 -9 -4
-16 -7 -15 -3 1 -18 -7 -35 -18 -22 -16 -50 -21 -122 -23 -61 -3 -93 0 -93 7
0 16 21 165 25 179 3 8 31 12 94 12 80 0 93 -3 117 -23z"/>
</g>
</svg>
